<?xml version="1.0" standalone="no"?>
<!DOCTYPE svg PUBLIC "-//W3C//DTD SVG 20010904//EN"
 "http://www.w3.org/TR/2001/REC-SVG-20010904/DTD/svg10.dtd">
<svg version="1.0" xmlns="http://www.w3.org/2000/svg"
 width="3000.000000pt" height="3000.000000pt" viewBox="0 0 3000.000000 3000.000000"
 preserveAspectRatio="xMidYMid meet">

<g transform="translate(0.000000,3000.000000) scale(0.100000,-0.100000)"
fill="#000000" stroke="none">
<path d="M23583 26463 c-128 -191 -381 -523 -494 -647 -46 -51 -496 -647 -559
-741 -18 -27 -55 -77 -80 -110 -51 -65 -396 -564 -547 -790 -51 -77 -105 -158
-120 -180 -70 -99 -162 -240 -201 -307 -23 -40 -61 -102 -83 -138 -23 -36 -72
-119 -109 -185 -37 -66 -90 -158 -119 -205 -28 -47 -51 -89 -51 -94 0 -5 -13
-30 -29 -55 -30 -48 -51 -86 -184 -336 -44 -82 -103 -193 -132 -245 -29 -52
-90 -165 -135 -250 -46 -85 -100 -184 -120 -220 -21 -36 -48 -83 -60 -105 -32
-58 -105 -187 -217 -385 -94 -165 -140 -249 -254 -465 -26 -49 -78 -146 -116
-215 -101 -180 -272 -492 -323 -585 -24 -44 -62 -114 -85 -155 -23 -41 -51
-93 -62 -115 -11 -22 -50 -96 -88 -165 -37 -69 -99 -183 -138 -255 -38 -71
-75 -137 -83 -145 -7 -8 -18 -29 -24 -45 -6 -17 -42 -82 -79 -145 -37 -63
-105 -182 -151 -265 -128 -232 -186 -333 -197 -347 -22 -27 -169 -289 -244
-433 -265 -516 -389 -746 -539 -1000 -45 -77 -91 -155 -101 -173 -11 -18 -59
-102 -107 -185 -49 -84 -106 -183 -127 -222 -40 -73 -47 -86 -190 -330 -49
-82 -103 -175 -121 -205 -102 -176 -148 -251 -238 -398 -56 -89 -110 -177
-120 -195 -11 -18 -45 -70 -76 -117 -31 -47 -85 -132 -120 -190 -35 -58 -86
-141 -115 -185 -28 -44 -87 -135 -131 -203 -79 -123 -167 -247 -298 -421 -187
-247 -177 -233 -166 -251 8 -12 20 -12 82 -1 40 7 123 19 183 26 61 7 131 17
158 21 43 6 47 5 47 -14 0 -12 -18 -59 -40 -104 -21 -46 -56 -123 -76 -173
-20 -49 -68 -155 -106 -234 -37 -79 -68 -145 -68 -148 0 -10 -240 -479 -358
-698 -175 -326 -370 -697 -407 -776 -49 -104 -459 -919 -565 -1124 -43 -82
-139 -271 -215 -420 -151 -295 -249 -481 -345 -650 -34 -60 -82 -148 -107
-195 -105 -198 -213 -286 -748 -606 -232 -139 -279 -167 -345 -210 -36 -22
-130 -78 -210 -124 -80 -45 -174 -99 -210 -120 -122 -70 -237 -130 -249 -130
-20 0 -12 20 47 118 33 53 93 158 136 232 42 74 95 164 117 200 65 103 143
239 209 367 101 192 171 324 203 383 79 144 184 346 231 445 169 349 296 616
316 660 12 28 44 97 70 155 52 115 268 623 430 1010 56 135 122 288 146 341
24 52 44 98 44 101 0 6 55 128 187 413 31 66 86 185 123 265 37 80 97 206 132
280 36 74 85 180 108 235 24 55 82 174 128 265 47 91 196 386 332 655 135 270
289 569 342 665 52 96 126 234 163 305 38 72 101 189 140 260 40 72 114 211
165 310 168 325 302 579 340 645 20 36 57 103 83 150 25 47 61 114 81 150 36
65 80 147 269 505 131 247 587 1164 587 1180 0 2 39 88 86 192 47 103 110 247
141 318 31 72 71 163 89 203 35 76 182 445 215 541 26 74 18 82 -80 75 -233
-16 -617 -55 -931 -95 -148 -19 -224 -23 -490 -23 -346 -1 -453 11 -640 69
-329 104 -729 341 -981 582 -238 229 -426 452 -781 928 -470 633 -588 763
-810 898 -34 20 -75 37 -91 37 -18 0 -66 -22 -122 -55 -50 -30 -94 -55 -98
-55 -3 0 -88 -40 -189 -89 -194 -94 -316 -151 -325 -151 -3 0 -19 -6 -36 -14
-236 -108 -884 -325 -1332 -446 -429 -116 -1454 -453 -1755 -578 -234 -96
-250 -104 -280 -138 -42 -49 -39 -71 13 -94 66 -29 144 -39 392 -50 127 -6
264 -15 305 -20 41 -5 115 -9 163 -9 71 -1 89 -4 94 -17 13 -35 -122 -304
-262 -525 -194 -302 -551 -734 -904 -1091 -85 -87 -112 -121 -104 -129 6 -6
60 -31 120 -56 153 -63 266 -104 638 -233 99 -34 202 -74 230 -89 114 -60 283
-270 338 -419 42 -115 22 -310 -45 -448 -53 -108 -99 -135 -338 -199 -132 -34
-354 -83 -505 -110 -132 -24 -394 -93 -430 -113 -38 -23 -40 -34 -95 -462 -71
-550 -77 -601 -98 -720 -11 -63 -28 -164 -37 -225 -29 -198 -47 -308 -75 -455
-16 -80 -36 -192 -45 -250 -40 -258 -59 -366 -90 -520 -44 -221 -71 -365 -90
-485 -9 -55 -20 -124 -25 -154 -6 -30 -10 -77 -10 -105 0 -50 1 -53 59 -104
33 -29 96 -96 141 -149 44 -54 135 -144 202 -202 203 -174 487 -381 583 -425
28 -12 111 -56 185 -96 74 -40 207 -111 295 -158 330 -175 429 -265 617 -559
121 -189 320 -611 481 -1023 44 -111 247 -720 302 -905 15 -49 39 -130 55
-180 66 -214 191 -726 256 -1050 58 -291 118 -644 159 -930 14 -99 34 -236 45
-305 11 -69 24 -168 30 -221 15 -153 40 -191 87 -133 75 93 100 118 151 153
72 48 551 296 1107 572 486 242 531 263 740 349 83 34 179 74 215 89 36 16
101 43 145 61 44 17 87 35 96 40 45 23 423 179 679 280 92 37 237 99 297 129
34 17 74 33 89 37 l27 7 -6 -74 c-3 -41 -15 -105 -26 -144 -12 -38 -28 -92
-36 -120 -39 -136 -79 -266 -100 -320 -13 -33 -31 -89 -40 -125 -9 -36 -36
-112 -60 -170 -44 -106 -125 -314 -210 -535 -89 -233 -109 -281 -147 -362 -21
-45 -38 -84 -38 -88 0 -14 -353 -733 -405 -825 -194 -343 -355 -708 -597
-1355 -26 -71 -57 -152 -67 -180 -32 -86 -138 -374 -186 -510 -26 -71 -58
-154 -71 -183 -36 -79 -32 -152 10 -152 15 0 35 17 61 53 21 28 85 106 140
172 56 66 114 138 130 160 16 22 66 83 110 135 45 52 112 133 150 180 38 47
94 114 125 150 216 247 703 870 1045 1339 50 67 191 256 314 419 276 365 621
825 684 912 26 36 102 142 169 235 67 94 138 193 158 220 21 28 131 185 245
350 114 165 223 323 242 350 32 46 214 319 574 860 80 121 213 319 294 440 82
121 225 335 318 475 312 470 570 854 860 1280 209 305 236 345 415 595 91 127
193 270 226 320 34 49 114 164 178 255 64 91 137 194 162 230 171 244 229 325
371 518 147 199 205 283 370 537 50 77 124 177 199 271 11 13 17 27 13 30 -3
4 -40 1 -82 -5 -42 -6 -108 -11 -148 -11 -40 0 -119 -6 -177 -15 -58 -8 -175
-22 -260 -30 -85 -9 -193 -23 -240 -30 -154 -25 -223 -34 -395 -55 -282 -34
-395 -49 -500 -64 -175 -26 -225 -30 -225 -17 0 7 18 38 39 69 47 70 118 190
226 382 79 141 124 219 189 327 51 86 194 331 255 438 32 55 80 138 107 185
175 297 311 543 399 720 32 63 98 189 147 280 135 247 148 271 246 460 189
367 221 427 265 506 25 45 114 218 198 385 84 167 175 345 202 394 27 50 92
173 144 275 53 102 99 190 103 195 4 6 44 84 89 175 46 91 92 183 104 205 12
22 42 79 67 126 25 48 57 109 71 135 70 130 219 427 246 489 17 39 58 133 92
210 33 78 69 165 80 195 11 30 33 89 49 130 140 362 470 1320 528 1535 71 261
190 751 234 960 7 33 25 112 40 175 15 63 42 178 59 255 18 77 43 185 56 240
51 213 145 649 225 1045 12 58 25 123 30 145 5 22 16 78 24 125 9 47 32 168
51 270 19 102 39 212 45 245 6 33 15 83 20 110 10 48 48 295 75 480 7 50 23
135 34 189 12 55 21 123 21 153 0 82 -25 73 -97 -34z"/>
<path d="M14729 26256 c-2 -2 -125 -9 -274 -16 -246 -11 -369 -22 -705 -64
-111 -14 -378 -56 -470 -75 -25 -5 -83 -16 -130 -25 -566 -104 -941 -201
-1490 -386 -419 -140 -845 -310 -1155 -461 -166 -80 -608 -309 -625 -323 -8
-7 -60 -37 -114 -66 -55 -28 -154 -87 -220 -130 -67 -42 -206 -128 -311 -190
-226 -135 -372 -231 -516 -338 -176 -129 -534 -418 -687 -552 -79 -69 -173
-151 -210 -183 -226 -198 -634 -616 -842 -863 -227 -269 -343 -410 -385 -464
-27 -36 -77 -99 -112 -140 -34 -41 -83 -105 -110 -142 -26 -37 -100 -136 -164
-220 -107 -140 -319 -447 -409 -593 -21 -33 -70 -112 -110 -175 -75 -118 -189
-310 -238 -402 -156 -289 -201 -377 -275 -533 -46 -99 -103 -218 -125 -265
-199 -421 -409 -978 -511 -1355 -16 -61 -37 -135 -46 -165 -18 -60 -38 -140
-60 -240 -8 -36 -21 -92 -29 -125 -9 -33 -31 -123 -49 -200 -19 -77 -42 -192
-52 -255 -9 -63 -25 -167 -36 -230 -27 -167 -66 -507 -81 -715 -7 -106 -13
-367 -13 -635 0 -452 11 -720 40 -965 40 -333 46 -387 60 -475 7 -52 17 -115
20 -140 27 -192 36 -256 50 -330 9 -47 23 -121 31 -165 7 -44 20 -111 28 -150
8 -38 17 -86 21 -105 6 -33 18 -86 94 -410 30 -127 80 -321 102 -400 6 -19 21
-73 34 -120 72 -257 228 -716 254 -744 13 -14 25 -52 35 -113 18 -99 32 -146
66 -214 23 -45 67 -99 82 -99 20 0 -8 294 -32 340 -7 14 -23 37 -37 51 l-24
26 51 21 c27 11 51 27 51 34 1 7 1 479 0 1048 -2 1048 11 2046 29 2265 5 66
14 179 20 250 6 72 17 195 25 275 8 80 20 201 25 270 12 132 20 188 70 475 17
99 38 221 46 270 17 100 53 263 89 400 13 50 27 108 30 130 4 22 18 81 32 130
14 50 29 104 33 120 110 418 272 903 390 1170 5 11 22 56 38 100 17 44 51 130
77 190 157 372 170 399 321 669 24 43 44 80 44 82 0 5 144 265 233 419 161
279 638 969 846 1226 29 35 77 93 106 129 284 349 483 570 814 901 395 394
570 548 1022 895 172 133 198 151 450 319 456 303 796 489 1404 767 100 46
495 208 555 228 14 5 70 25 125 45 55 20 127 45 160 55 33 11 80 26 105 34
239 78 721 206 845 226 28 4 111 20 185 34 384 75 429 82 735 112 342 33 972
58 1265 51 502 -13 1088 -65 1460 -132 41 -7 107 -18 145 -25 57 -10 301 -59
500 -100 22 -5 76 -18 120 -30 44 -12 123 -33 175 -46 174 -46 244 -65 300
-83 30 -10 102 -33 160 -51 150 -47 204 -65 300 -101 47 -17 99 -35 115 -41
17 -5 39 -14 50 -19 11 -5 50 -20 87 -34 37 -13 87 -33 110 -44 24 -11 115
-49 203 -86 271 -113 762 -363 1145 -584 25 -14 81 -46 124 -71 43 -25 105
-62 137 -82 82 -52 95 -54 159 -18 30 17 98 52 150 77 184 90 770 463 784 499
19 50 -122 186 -369 355 -127 87 -509 317 -695 418 -126 69 -588 296 -746 366
-82 37 -169 76 -194 87 -171 78 -264 115 -470 190 -107 38 -213 76 -235 83
-22 7 -98 34 -170 60 -71 26 -224 75 -340 111 -320 98 -382 115 -592 169 -136
34 -419 94 -568 121 -49 8 -110 20 -135 26 -25 5 -70 14 -100 19 -30 4 -95 15
-145 24 -517 89 -1162 145 -1666 145 -157 0 -288 -2 -290 -4z"/>
<path d="M13490 23347 c-24 -12 -25 -15 -28 -142 -2 -100 1 -135 12 -150 19
-26 128 -32 728 -41 373 -6 470 -5 483 6 10 8 15 30 15 68 0 31 5 93 12 139
15 105 11 110 -103 123 -132 15 -1088 13 -1119 -3z"/>
<path d="M15308 22230 c-256 -3 -370 -8 -378 -16 -15 -15 -16 -278 -1 -316 5
-15 18 -30 28 -35 10 -4 639 -7 1399 -5 l1381 2 10 46 c7 30 7 58 2 80 -10 34
-6 157 5 184 4 9 0 24 -8 35 -12 17 -31 20 -163 27 -165 7 -1707 6 -2275 -2z"/>
<path d="M24036 20968 c-13 -61 -27 -140 -36 -203 -5 -38 -16 -113 -24 -165
-8 -52 -22 -142 -30 -200 -33 -222 -65 -406 -75 -433 -25 -64 -15 -107 47
-202 52 -79 159 -263 230 -395 72 -132 261 -512 277 -555 11 -27 27 -63 36
-80 29 -50 156 -374 184 -470 15 -49 37 -121 51 -160 13 -38 44 -151 69 -250
26 -99 54 -209 64 -245 26 -92 32 -123 109 -575 24 -140 56 -384 74 -575 9
-94 13 -323 13 -760 0 -522 -3 -656 -18 -815 -10 -104 -20 -197 -22 -205 -2
-8 -14 -78 -25 -155 -11 -77 -27 -174 -34 -215 -8 -41 -22 -118 -31 -170 -9
-52 -23 -120 -30 -150 -8 -30 -28 -116 -44 -190 -57 -257 -69 -306 -120 -485
-102 -353 -335 -1018 -420 -1200 -11 -22 -47 -105 -81 -185 -109 -253 -369
-785 -436 -891 -13 -21 -24 -41 -24 -43 0 -6 -85 -149 -109 -184 -10 -15 -44
-72 -76 -127 -130 -224 -459 -727 -615 -940 -104 -143 -231 -310 -295 -390
-40 -49 -90 -115 -111 -146 -33 -48 -190 -245 -369 -464 -27 -34 -68 -84 -90
-111 -166 -207 -851 -902 -1125 -1142 -85 -75 -207 -182 -270 -237 -443 -390
-1109 -874 -1550 -1128 -52 -30 -160 -93 -240 -139 -187 -109 -545 -293 -680
-351 -139 -60 -292 -130 -361 -167 -31 -17 -64 -30 -72 -30 -22 0 -27 -11 -44
-92 l-14 -69 31 -55 c31 -56 38 -73 132 -327 30 -82 62 -155 70 -164 14 -13
24 -12 99 13 46 15 111 40 144 56 33 15 70 28 82 28 50 0 273 94 643 272 296
143 522 259 666 344 82 48 187 110 234 137 787 456 1352 844 1845 1266 516
443 1162 1091 1596 1602 161 190 506 645 665 877 217 317 413 614 489 742 21
36 55 90 75 120 45 66 212 354 290 500 340 629 342 633 495 975 14 33 33 74
41 92 8 17 14 34 14 37 0 3 11 29 24 58 42 91 152 358 199 484 26 67 51 132
56 145 5 13 24 71 41 129 18 58 42 139 55 180 57 185 214 807 239 945 8 44 30
163 50 265 19 102 42 232 51 290 9 58 22 146 30 195 39 250 61 438 75 660 18
267 23 729 11 981 -10 225 -49 662 -70 799 -81 520 -160 890 -265 1250 -44
150 -132 399 -161 455 -7 14 -18 43 -25 65 -7 22 -20 56 -30 75 -10 19 -32 67
-50 105 -61 136 -210 431 -242 482 -18 29 -49 78 -68 110 -216 358 -615 889
-954 1267 -120 134 -238 256 -248 256 -4 0 -10 -10 -12 -22z"/>
<path d="M7773 19051 c-17 -8 -25 -28 -42 -103 -32 -145 -59 -270 -96 -433
-19 -82 -42 -186 -51 -230 -16 -75 -107 -441 -172 -695 -63 -243 -88 -444 -58
-469 8 -7 45 -16 83 -22 37 -5 109 -16 158 -24 81 -14 258 -31 403 -40 65 -4
88 14 96 77 3 24 10 86 16 138 6 52 17 133 25 180 14 84 30 200 60 420 9 63
25 171 36 240 53 342 80 553 89 722 5 103 7 193 4 202 -3 9 -22 20 -42 26 -50
14 -481 23 -509 11z"/>
<path d="M23074 17926 c3 -13 42 -84 87 -157 240 -394 306 -522 444 -864 122
-303 205 -591 244 -847 12 -75 23 -142 26 -150 3 -7 9 -51 14 -97 7 -62 14
-88 27 -98 13 -9 58 -13 153 -13 84 0 164 -6 211 -16 87 -18 115 -13 124 20 8
31 -63 389 -109 550 -80 284 -142 453 -227 626 -151 307 -299 523 -524 767
-148 160 -364 303 -457 303 -15 0 -18 -5 -13 -24z"/>
<path d="M22394 15756 c-12 -32 3 -62 211 -421 54 -93 133 -240 176 -325 80
-162 91 -186 159 -340 23 -52 48 -108 55 -125 8 -16 23 -54 34 -82 12 -29 34
-79 50 -112 73 -144 157 -362 270 -701 68 -201 139 -400 158 -442 54 -116 65
-105 52 52 -11 136 -20 203 -53 380 -39 219 -84 432 -118 560 -138 529 -468
1111 -817 1442 -101 96 -168 139 -177 114z"/>
<path d="M7150 15413 c-77 -11 -70 12 -70 -226 1 -116 5 -299 10 -406 5 -106
12 -482 15 -835 4 -378 11 -652 16 -667 l10 -26 148 -6 c81 -3 172 -12 202
-20 88 -25 135 -29 148 -13 24 29 1 1970 -25 2137 -4 22 -14 43 -23 48 -17 9
-387 21 -431 14z"/>
<path d="M6173 11364 c-6 -16 200 -331 364 -557 118 -162 249 -369 325 -517
33 -63 79 -144 103 -180 103 -158 154 -240 189 -306 37 -72 63 -94 110 -94 29
0 70 -44 91 -97 11 -28 29 -50 54 -65 20 -12 80 -65 134 -117 105 -102 121
-107 106 -28 -14 75 -121 315 -190 427 -9 14 -60 104 -114 200 -146 260 -264
433 -445 650 -182 220 -288 330 -505 529 -192 176 -209 188 -222 155z"/>
<path d="M5930 9672 c0 -29 146 -241 260 -377 219 -262 328 -380 591 -640 281
-277 418 -402 622 -564 50 -40 140 -112 198 -160 265 -215 550 -419 798 -571
58 -36 135 -85 171 -110 71 -49 243 -143 595 -325 55 -29 159 -82 230 -120 72
-37 166 -80 210 -95 44 -16 152 -61 240 -100 200 -90 255 -112 268 -107 11 3
-87 76 -163 120 -25 15 -76 52 -115 82 -38 31 -82 63 -96 70 -14 8 -32 21 -39
30 -8 10 -41 35 -75 58 -86 58 -337 252 -498 385 -244 201 -701 545 -1287 969
-96 69 -193 138 -215 152 -43 28 -237 173 -463 348 -77 59 -168 128 -203 153
-216 154 -578 450 -739 605 -111 106 -253 215 -279 215 -6 0 -11 -8 -11 -18z"/>
</g>
</svg>
